<svg xmlns="http://www.w3.org/2000/svg" xmlns:xlink="http://www.w3.org/1999/xlink" viewBox="0 0 280 250" preserveAspectRatio="xMidYMid" style="display: block; shape-rendering: auto; background: rgb(253, 253, 253);" width="280" height="250"><style type="text/css">
  .ld-text text {
    text-anchor: middle;
    dominant-baseline: middle;
    font-size: 57px;
    opacity: 0;
    user-select: none;
    pointer-events: none;
  }
</style>
<g style="transform-origin:140px 125px;transform:scale(1)" class="ld-text">
<g transform="translate(140,125)">
  <g transform="scale(0.7125) translate(0,0)"><g class="path" style="opacity: 1; transform-origin: -77.12px 0.21px; transform: matrix3d(0.91, 0, 0, 0, 0, 0.91, 0, 0, 0, 0, 0.91, 0, 0, 0, 0, 1); animation: 1s linear -0.5775s infinite normal forwards running animate-8rw4q9slfuu; transform-box: view-box;"><path d="M17.16 26.02Q14.96 24.34 13.28 20.90Q11.60 17.46 11.60 13.14Q11.60 8.82 12.96 5.14Q14.32 1.46 17-1.54Q19.68-4.54 24.16-6.34Q28.64-8.14 33.68-8.14Q38.72-8.14 42.80-7.38Q46.88-6.62 49.20-5.78Q51.52-4.94 53.32-4.18Q55.12-3.42 56.24-2.98Q57.36-2.54 57.60-2.46Q57.84-2.38 58.88-1.98Q59.92-1.58 60.28-1.50Q60.64-1.42 61.56-1.10Q62.48-0.78 63-0.70Q63.52-0.62 64.40-0.42Q65.28-0.22 65.92-0.18Q66.56-0.14 67.44-0.06Q68.32 0.02 69.12 0.02L69.12 0.02Q73.04 0.02 75.96-1.30Q78.88-2.62 80.20-4.22Q81.52-5.82 82.32-7.90L82.32-7.90Q83.28-10.46 83.28-12.54L83.28-12.54L85.04-12.54Q85.04-10.62 84.04-7.86Q83.04-5.10 81.56-3.22Q80.08-1.34 76.80 0.18Q73.52 1.70 69 1.70Q64.48 1.70 59.92 0.26L59.92 0.26Q54.48 7.94 48.48 31.22L48.48 31.22Q45.52 42.90 39.96 48.22Q34.40 53.54 23.88 53.54Q13.36 53.54 8.16 47.14L8.16 47.14Q3.60 41.46 3.60 33.94L3.60 33.94Q3.60 32.98 3.68 32.02L3.68 32.02L5.52 32.02L5.52 33.14Q5.52 38.66 8.48 43.94L8.48 43.94Q9.76 46.18 11.56 47.82Q13.36 49.46 16.40 50.58Q19.44 51.70 23.20 51.70L23.20 51.70Q29.44 51.70 33.08 46.66Q36.72 41.62 40.12 27.18Q43.52 12.74 47.08 6.54Q50.64 0.34 57.44-0.62L57.44-0.62Q55.36-1.42 53.04-2.42Q50.72-3.42 48.60-4.18Q46.48-4.94 42.52-5.70Q38.56-6.46 33.68-6.46Q28.80-6.46 24.60-4.70Q20.40-2.94 18.08-0.06L18.08-0.06Q13.44 5.54 13.44 12.90L13.44 12.90Q13.44 17.06 14.96 20.22Q16.48 23.38 18.64 24.90L18.64 24.90Q23.04 27.86 26.64 28.26L26.64 28.26L28.16 28.42L27.68 30.18Q25.68 30.18 22.52 28.94Q19.36 27.70 17.16 26.02" style="fill: rgb(81, 202, 204);" transform="translate(-121.440,-20.290)"></path></g><g class="path" style="opacity: 1; transform-origin: -38.64px 5.09px; transform: matrix3d(0.91, 0, 0, 0, 0, 0.91, 0, 0, 0, 0, 0.91, 0, 0, 0, 0, 1); animation: 1s linear -0.495s infinite normal forwards running animate-8rw4q9slfuu; transform-box: view-box;"><path d="M79.68 41.30Q73.52 41.30 70.32 38.22Q67.12 35.14 67.12 30.46Q67.12 25.78 67.96 22.46Q68.80 19.14 70.72 16.06Q72.64 12.98 76.52 11.22Q80.40 9.46 86.20 9.46Q92 9.46 95.24 12.54Q98.48 15.62 98.48 20.98L98.48 20.98Q98.48 30.10 93.64 35.70Q88.80 41.30 79.68 41.30L79.68 41.30 zM76.16 33.06L76.16 33.06Q76.16 39.46 79.88 39.46Q83.60 39.46 86.52 33.02Q89.44 26.58 89.44 17.70L89.44 17.70Q89.44 10.98 85.80 10.98Q82.16 10.98 79.16 17.10Q76.16 23.22 76.16 33.06" style="fill: rgb(157, 248, 113);" transform="translate(-121.440,-20.290)"></path></g><g class="path" style="opacity: 1; transform-origin: -1.4px 5.09px; transform: matrix3d(0.91, 0, 0, 0, 0, 0.91, 0, 0, 0, 0, 0.91, 0, 0, 0, 0, 1); animation: 1s linear -0.4125s infinite normal forwards running animate-8rw4q9slfuu; transform-box: view-box;"><path d="M107.36 11.06L107.36 11.06Q105.44 11.06 103.36 13.30L103.36 13.30L102.16 12.34Q102.72 11.22 104.64 10.34Q106.56 9.46 108.88 9.46L108.88 9.46Q116.16 9.46 116.16 16.02L116.16 16.02Q116.16 18.82 114.72 26.02Q113.28 33.22 113.28 35.46L113.28 35.46Q113.28 38.90 116.56 38.90L116.56 38.90Q118.88 38.90 121.08 36.18Q123.28 33.46 124.88 28.66L124.88 28.66L128.24 10.18Q134.16 10.18 136.88 9.70L136.88 9.70L137.92 9.46L132.56 39.70Q134.96 39.46 136.56 37.46L136.56 37.46L137.76 38.42Q135.36 41.30 131.76 41.30Q128.16 41.30 126.16 39.54Q124.16 37.78 124.08 34.58L124.08 34.58Q120.72 41.30 114.16 41.30L114.16 41.30Q109.44 41.30 106.80 38.62Q104.16 35.94 104.16 31.22L104.16 31.22Q104.16 28.74 105.68 21.66Q107.20 14.58 107.36 11.06" style="fill: rgb(224, 255, 119);" transform="translate(-121.440,-20.290)"></path></g><g class="path" style="opacity: 1; transform-origin: 35.92px 4.73px; transform: matrix3d(0.91, 0, 0, 0, 0, 0.91, 0, 0, 0, 0, 0.91, 0, 0, 0, 0, 1); animation: 1s linear -0.33s infinite normal forwards running animate-8rw4q9slfuu; transform-box: view-box;"><path d="M144 13.30L142.80 12.34Q145.20 9.46 148.84 9.46Q152.48 9.46 154.48 11.30Q156.48 13.14 156.48 16.50L156.48 16.50L156.48 16.98Q160.08 9.46 165.84 9.46L165.84 9.46Q172 9.46 172 15.86L172 15.86Q172 18.50 170.24 21.46Q168.48 24.42 166.72 27.10Q164.96 29.78 164.96 31.86L164.96 31.86L163.04 31.86Q163.04 28.90 166.48 23.86Q169.92 18.82 169.92 16.06Q169.92 13.30 168.84 12.30Q167.76 11.30 165.64 11.30Q163.52 11.30 161.48 13.14Q159.44 14.98 158.08 17.78L158.08 17.78Q155.92 21.94 155.20 24.58L155.20 24.58L155.20 24.66L152.32 40.58L142.72 40.58L148 11.06Q145.60 11.30 144 13.30L144 13.30" style="fill: rgb(222, 157, 214);" transform="translate(-121.440,-20.290)"></path></g><g class="path" style="opacity: 1; transform-origin: 60.36px 5.09px; transform: matrix3d(0.91, 0, 0, 0, 0, 0.91, 0, 0, 0, 0, 0.91, 0, 0, 0, 0, 1); animation: 1s linear -0.2475s infinite normal forwards running animate-8rw4q9slfuu; transform-box: view-box;"><path d="M188.48 38.42Q186.08 41.30 182.48 41.30Q178.88 41.30 176.84 39.46Q174.80 37.62 174.80 34.66L174.80 34.66Q174.80 33.62 176.08 25.94L176.08 25.94L178.72 11.62L175.36 11.62L175.52 10.18L178.96 10.18Q184.88 10.18 187.68 9.70L187.68 9.70L188.80 9.46L183.28 39.70Q185.68 39.46 187.28 37.46L187.28 37.46L188.48 38.42" style="fill: rgb(255, 112, 142);" transform="translate(-121.440,-20.290)"></path></g><g class="path" style="opacity: 1; transform-origin: 64.12px -22.63px; transform: matrix3d(0.91, 0, 0, 0, 0, 0.91, 0, 0, 0, 0, 0.91, 0, 0, 0, 0, 1); animation: 1s linear -0.165s infinite normal forwards running animate-8rw4q9slfuu; transform-box: view-box;"><path d="M181.44 1.78Q179.76 0.10 179.76-2.30Q179.76-4.70 181.44-6.42Q183.12-8.14 185.52-8.14Q187.92-8.14 189.64-6.42Q191.36-4.70 191.36-2.30Q191.36 0.10 189.64 1.78Q187.92 3.46 185.52 3.46Q183.12 3.46 181.44 1.78" style="fill: rgb(81, 202, 204);" transform="translate(-121.440,-20.290)"></path></g><g class="path" style="opacity: 1; transform-origin: 83.04px 3.25px; transform: matrix3d(0.91, 0, 0, 0, 0, 0.91, 0, 0, 0, 0, 0.91, 0, 0, 0, 0, 1); animation: 1s linear -0.0825s infinite normal forwards running animate-8rw4q9slfuu; transform-box: view-box;"><path d="M200.56 39.22L200.56 39.22Q208.48 39.22 208.48 27.54L208.48 27.54Q208.48 24.66 207.64 20.74Q206.80 16.82 206.64 15.86L206.64 15.86Q201.76 20.90 195.68 21.94L195.68 21.94L195.68 20.02Q201.44 18.74 206.48 13.46L206.48 13.46L206.48 13.14Q206.48 11.22 207.04 9.38Q207.60 7.54 208.16 6.66L208.16 6.66L208.72 5.78L210.64 5.78Q210.64 9.30 211.76 12.22Q212.88 15.14 214.24 16.94Q215.60 18.74 216.72 21.66Q217.84 24.58 217.84 28.10L217.84 28.10Q217.84 33.78 213.56 37.54Q209.28 41.30 203.28 41.30Q197.28 41.30 194.20 38.58Q191.12 35.86 191.12 32.30Q191.12 28.74 192.88 27.18Q194.64 25.62 197.04 25.62Q199.44 25.62 201 27.18Q202.56 28.74 202.56 31.18Q202.56 33.62 201.04 35.30Q199.52 36.98 197.12 36.98L197.12 36.98Q196.08 36.98 194.96 36.66L194.96 36.66Q196.72 39.22 200.56 39.22" style="fill: rgb(157, 248, 113);" transform="translate(-121.440,-20.290)"></path></g><g class="path" style="opacity: 1; transform-origin: 113.2px -0.83px; transform: matrix3d(0.91, 0, 0, 0, 0, 0.91, 0, 0, 0, 0, 0.91, 0, 0, 0, 0, 1); animation: 1s linear 0s infinite normal forwards running animate-8rw4q9slfuu; transform-box: view-box;"><path d="M222.96 10.18L227.04 10.18L229.20-1.66Q235.12-1.66 238-2.14L238-2.14L239.04-2.38Q237.92 3.22 236.56 10.18L236.56 10.18L246.48 10.18L246.32 11.62L236.32 11.62Q232.32 32.26 232.32 36.50L232.32 36.50Q232.32 39.06 235.04 39.06Q237.76 39.06 240 35.62Q242.24 32.18 243.20 28.18L243.20 28.18L244.64 28.66Q241.68 41.30 232.40 41.30L232.40 41.30Q228.56 41.30 226 39.18Q223.44 37.06 223.44 33.26Q223.44 29.46 226.72 11.62L226.72 11.62L222.80 11.62L222.96 10.18" style="fill: rgb(224, 255, 119);" transform="translate(-121.440,-20.290)"></path></g></g><text dy="0.35em" fill="#51cacc" font-family="Sail" font-size="57">Tourist</text>
</g>
</g><style type="text/css">@keyframes animate-8rw4q9slfuu { 0.00% {transform: translate(0.00px,0.00px) rotate(0.00deg) scale(0.91, 0.91) skew(0deg, 0.00deg) ;opacity: 1.00;}4.00% {transform: translate(0.00px,0.00px) rotate(0.00deg) scale(0.91, 0.91) ;}8.00% {animation-timing-function: cubic-bezier(0.69,0.60,0.35,0.27);transform: translate(0.00px,0.00px) rotate(0.00deg) scale(0.91, 0.91) ;}14.00% {transform: translate(0.00px,0.00px) rotate(0.00deg) scale(0.93, 0.93) ;}18.00% {transform: translate(0.00px,0.00px) rotate(0.00deg) scale(0.94, 0.94) ;}22.00% {animation-timing-function: cubic-bezier(0.67,0.66,0.34,0.33);transform: translate(0.00px,0.00px) rotate(0.00deg) scale(0.96, 0.96) ;}26.00% {transform: translate(0.00px,0.00px) rotate(0.00deg) scale(0.97, 0.97) ;}30.00% {transform: translate(0.00px,0.00px) rotate(0.00deg) scale(0.99, 0.99) ;}34.00% {animation-timing-function: cubic-bezier(0.65,0.71,0.32,0.38);transform: translate(0.00px,0.00px) rotate(0.00deg) scale(1.01, 1.01) ;}40.00% {animation-timing-function: cubic-bezier(0.64,0.74,0.31,0.41);transform: translate(0.00px,0.00px) rotate(0.00deg) scale(1.02, 1.02) ;}46.00% {animation-timing-function: cubic-bezier(0.60,0.91,0.23,0.63);transform: translate(0.00px,0.00px) rotate(0.00deg) scale(1.03, 1.03) ;}50.00% {transform: translate(0.00px,0.00px) rotate(0.00deg) scale(1.03, 1.03) ;}54.00% {transform: translate(0.00px,0.00px) rotate(0.00deg) scale(1.03, 1.03) ;}58.00% {animation-timing-function: cubic-bezier(0.69,0.60,0.35,0.27);transform: translate(0.00px,0.00px) rotate(0.00deg) scale(1.03, 1.03) ;}64.00% {transform: translate(0.00px,0.00px) rotate(0.00deg) scale(1.01, 1.01) ;}68.00% {transform: translate(0.00px,0.00px) rotate(0.00deg) scale(1.00, 1.00) ;}72.00% {animation-timing-function: cubic-bezier(0.67,0.66,0.34,0.33);transform: translate(0.00px,0.00px) rotate(0.00deg) scale(0.98, 0.98) ;}76.00% {animation-timing-function: cubic-bezier(0.66,0.68,0.33,0.35);transform: translate(0.00px,0.00px) rotate(0.00deg) scale(0.97, 0.97) ;}82.00% {animation-timing-function: cubic-bezier(0.65,0.71,0.32,0.38);transform: translate(0.00px,0.00px) rotate(0.00deg) scale(0.94, 0.94) ;}88.00% {animation-timing-function: cubic-bezier(0.65,0.73,0.31,0.40);transform: translate(0.00px,0.00px) rotate(0.00deg) scale(0.92, 0.92) ;}94.00% {animation-timing-function: cubic-bezier(0.63,0.80,0.28,0.48);transform: translate(0.00px,0.00px) rotate(0.00deg) scale(0.91, 0.91) ;}100.00% {animation-timing-function: cubic-bezier(0.63,0.80,0.28,0.48);transform: translate(0.00px,0.00px) rotate(0.00deg) scale(0.91, 0.91) ;} }</style><!-- [ldio] generated by https://loading.io --></svg>