<svg xmlns="http://www.w3.org/2000/svg" xmlns:xlink="http://www.w3.org/1999/xlink" viewBox="0 0 280 250" preserveAspectRatio="xMidYMid" style="display: block; shape-rendering: auto; background: rgb(253, 253, 253);" width="280" height="250"><style type="text/css">
  .ld-text text {
    text-anchor: middle;
    dominant-baseline: middle;
    font-size: 57px;
    opacity: 0;
    user-select: none;
    pointer-events: none;
  }
</style>
<g style="transform-origin:140px 125px;transform:scale(1)" class="ld-text">
<g transform="translate(140,125)">
  <g transform="scale(0.7125) translate(0,0)"><g class="path" style="opacity: 1; transform-origin: -58px 1.42px; transform: matrix3d(0.91, 0, 0, 0, 0, 0.91, 0, 0, 0, 0, 0.91, 0, 0, 0, 0, 1); animation: 1s linear -0.55s infinite normal forwards running animate-8rw4q9slfuu; transform-box: view-box;"><path d="M102.24 44.83L103.28 46.19Q100.24 49.23 95.40 49.23Q90.56 49.23 87.68 46.07Q84.80 42.91 84.80 37.75Q84.80 32.59 86.64 25.87L86.64 25.87L90.24 14.03Q83.52 22.51 77.92 30.27L77.92 30.27Q66.88 45.55 62.96 50.75L62.96 50.75L61.52 50.35L58.40 11.63L52 23.31Q42.88 40.51 36.76 45.99Q30.64 51.47 20.48 51.47L20.48 51.47Q11.84 51.47 6.16 45.31L6.16 45.31Q1.68 40.27 1.68 33.23L1.68 33.23Q1.68 31.95 1.84 30.59L1.84 30.59L3.44 30.75Q3.28 32.03 3.28 33.23L3.28 33.23Q3.28 39.71 7.36 44.19L7.36 44.19Q12.56 49.87 20.48 49.87L20.48 49.87Q30 49.87 35.84 44.55Q41.68 39.23 50.56 22.59L50.56 22.59L64.96-3.57Q56.48-3.73 48.52-6.25Q40.56-8.77 34.28-8.77Q28-8.77 23.76-4.37Q19.52 0.03 19.52 6.99L19.52 6.99L17.92 6.99Q17.92-0.69 22.60-5.53Q27.28-10.37 34.72-10.37L34.72-10.37Q40.72-10.37 49-7.77Q57.28-5.17 66.88-5.17L66.88-5.17L70.24 38.03L71.84 35.79Q88.72 12.59 97.92 2.63Q107.12-7.33 112.80-7.33L112.80-7.33L112.80-5.73Q110.32-5.73 106.48-3.01L106.48-3.01Q105.92-1.25 102.72 9.19Q99.52 19.63 97 27.43Q94.48 35.23 94.48 40.19Q94.48 45.15 96.24 47.55L96.24 47.55Q97.92 47.55 99.40 46.87Q100.88 46.19 101.60 45.47L101.60 45.47L102.24 44.83" style="fill: rgb(81, 202, 204);" transform="translate(-115.240,-19.133)"></path></g><g class="path" style="opacity: 1; transform-origin: 12.2px 3.94px; transform: matrix3d(0.91, 0, 0, 0, 0, 0.91, 0, 0, 0, 0, 0.91, 0, 0, 0, 0, 1); animation: 1s linear -0.44s infinite normal forwards running animate-8rw4q9slfuu; transform-box: view-box;"><path d="M138.40 38.99L138.40 38.99Q131.36 38.99 130.72 32.83L130.72 32.83Q127.20 38.99 121.84 38.99Q116.48 38.99 113.32 35.75Q110.16 32.51 110.16 26.67L110.16 26.67Q110.16 17.55 114.64 12.35Q119.12 7.15 126.24 7.15L126.24 7.15Q132.08 7.15 134 12.67L134 12.67Q134.40 10.27 134.88 7.87L134.88 7.87Q140.80 7.87 143.68 7.39L143.68 7.39L144.72 7.15L139.20 37.39Q141.60 37.15 143.20 35.15L143.20 35.15L144.40 36.11Q142 38.99 138.40 38.99 zM119.20 30.75Q119.20 34.35 120.12 35.75Q121.04 37.15 122.96 37.15Q124.88 37.15 126.88 35.07L126.88 35.07Q129.52 32.35 131.12 28.19L131.12 28.19Q131.36 27.15 132.04 23.19Q132.72 19.23 133.20 16.67L133.20 16.67Q132.96 13.63 131.52 11.39Q130.08 9.15 127.92 9.15L127.92 9.15Q124 9.15 121.60 16.15Q119.20 23.15 119.20 30.75L119.20 30.75" style="fill: rgb(157, 248, 113);" transform="translate(-115.240,-19.133)"></path></g><g class="path" style="opacity: 1; transform-origin: 45.68px -23.78px; transform: matrix3d(0.91, 0, 0, 0, 0, 0.91, 0, 0, 0, 0, 0.91, 0, 0, 0, 0, 1); animation: 1s linear -0.33s infinite normal forwards running animate-8rw4q9slfuu; transform-box: view-box;"><path d="M156.80-0.53Q155.12-2.21 155.12-4.61Q155.12-7.01 156.80-8.73Q158.48-10.45 160.88-10.45Q163.28-10.45 165-8.73Q166.72-7.01 166.72-4.61Q166.72-2.21 165-0.53Q163.28 1.15 160.88 1.15Q158.48 1.15 156.80-0.53" style="fill: rgb(224, 255, 119);" transform="translate(-115.240,-19.133)"></path></g><g class="path" style="opacity: 1; transform-origin: 36.08px 10.94px; transform: matrix3d(0.91, 0, 0, 0, 0, 0.91, 0, 0, 0, 0, 0.91, 0, 0, 0, 0, 1); animation: 1s linear -0.22s infinite normal forwards running animate-8rw4q9slfuu; transform-box: view-box;"><path d="M150.80 7.87L154.24 7.87Q160.16 7.87 163.04 7.39L163.04 7.39L164.08 7.15Q163.28 11.47 161.48 21.51Q159.68 31.55 158.88 35.87L158.88 35.87Q157.36 44.43 153.40 48.71Q149.44 52.99 142.24 52.99L142.24 52.99Q139.84 52.99 138.56 52.27L138.56 52.27L139.12 50.75Q140.48 51.47 142.52 51.47Q144.56 51.47 145.68 49.99Q146.80 48.51 147.60 44.27L147.60 44.27Q150.40 29.15 154.08 9.31L154.08 9.31L150.64 9.31L150.80 7.87" style="fill: rgb(222, 157, 214);" transform="translate(-115.240,-19.133)"></path></g><g class="path" style="opacity: 1; transform-origin: 67.64px 3.94px; transform: matrix3d(0.91, 0, 0, 0, 0, 0.91, 0, 0, 0, 0, 0.91, 0, 0, 0, 0, 1); animation: 1s linear -0.11s infinite normal forwards running animate-8rw4q9slfuu; transform-box: view-box;"><path d="M179.76 38.99Q173.60 38.99 170.40 35.91Q167.20 32.83 167.20 28.15Q167.20 23.47 168.04 20.15Q168.88 16.83 170.80 13.75Q172.72 10.67 176.60 8.91Q180.48 7.15 186.28 7.15Q192.08 7.15 195.32 10.23Q198.56 13.31 198.56 18.67L198.56 18.67Q198.56 27.79 193.72 33.39Q188.88 38.99 179.76 38.99L179.76 38.99 zM176.24 30.75L176.24 30.75Q176.24 37.15 179.96 37.15Q183.68 37.15 186.60 30.71Q189.52 24.27 189.52 15.39L189.52 15.39Q189.52 8.67 185.88 8.67Q182.24 8.67 179.24 14.79Q176.24 20.91 176.24 30.75" style="fill: rgb(255, 112, 142);" transform="translate(-115.240,-19.133)"></path></g><g class="path" style="opacity: 1; transform-origin: 102.28px 3.58px; transform: matrix3d(0.91, 0, 0, 0, 0, 0.91, 0, 0, 0, 0, 0.91, 0, 0, 0, 0, 1); animation: 1s linear 0s infinite normal forwards running animate-8rw4q9slfuu; transform-box: view-box;"><path d="M204.16 10.99L202.96 10.03Q205.36 7.15 209 7.15Q212.64 7.15 214.64 8.99Q216.64 10.83 216.64 14.19L216.64 14.19L216.64 14.67Q220.24 7.15 226 7.15L226 7.15Q232.16 7.15 232.16 13.55L232.16 13.55Q232.16 16.19 230.40 19.15Q228.64 22.11 226.88 24.79Q225.12 27.47 225.12 29.55L225.12 29.55L223.20 29.55Q223.20 26.59 226.64 21.55Q230.08 16.51 230.08 13.75Q230.08 10.99 229 9.99Q227.92 8.99 225.80 8.99Q223.68 8.99 221.64 10.83Q219.60 12.67 218.24 15.47L218.24 15.47Q216.08 19.63 215.36 22.27L215.36 22.27L215.36 22.35L212.48 38.27L202.88 38.27L208.16 8.75Q205.76 8.99 204.16 10.99L204.16 10.99" style="fill: rgb(81, 202, 204);" transform="translate(-115.240,-19.133)"></path></g></g><text dy="0.35em" fill="#51cacc" font-family="Sail" font-size="57">Major</text>
</g>
</g><style type="text/css">@keyframes animate-8rw4q9slfuu { 0.00% {transform: translate(0.00px,0.00px) rotate(0.00deg) scale(0.91, 0.91) skew(0deg, 0.00deg) ;opacity: 1.00;}4.00% {transform: translate(0.00px,0.00px) rotate(0.00deg) scale(0.91, 0.91) ;}8.00% {animation-timing-function: cubic-bezier(0.69,0.60,0.35,0.27);transform: translate(0.00px,0.00px) rotate(0.00deg) scale(0.91, 0.91) ;}14.00% {transform: translate(0.00px,0.00px) rotate(0.00deg) scale(0.93, 0.93) ;}18.00% {transform: translate(0.00px,0.00px) rotate(0.00deg) scale(0.94, 0.94) ;}22.00% {animation-timing-function: cubic-bezier(0.67,0.66,0.34,0.33);transform: translate(0.00px,0.00px) rotate(0.00deg) scale(0.96, 0.96) ;}26.00% {transform: translate(0.00px,0.00px) rotate(0.00deg) scale(0.97, 0.97) ;}30.00% {transform: translate(0.00px,0.00px) rotate(0.00deg) scale(0.99, 0.99) ;}34.00% {animation-timing-function: cubic-bezier(0.65,0.71,0.32,0.38);transform: translate(0.00px,0.00px) rotate(0.00deg) scale(1.01, 1.01) ;}40.00% {animation-timing-function: cubic-bezier(0.64,0.74,0.31,0.41);transform: translate(0.00px,0.00px) rotate(0.00deg) scale(1.02, 1.02) ;}46.00% {animation-timing-function: cubic-bezier(0.60,0.91,0.23,0.63);transform: translate(0.00px,0.00px) rotate(0.00deg) scale(1.03, 1.03) ;}50.00% {transform: translate(0.00px,0.00px) rotate(0.00deg) scale(1.03, 1.03) ;}54.00% {transform: translate(0.00px,0.00px) rotate(0.00deg) scale(1.03, 1.03) ;}58.00% {animation-timing-function: cubic-bezier(0.69,0.60,0.35,0.27);transform: translate(0.00px,0.00px) rotate(0.00deg) scale(1.03, 1.03) ;}64.00% {transform: translate(0.00px,0.00px) rotate(0.00deg) scale(1.01, 1.01) ;}68.00% {transform: translate(0.00px,0.00px) rotate(0.00deg) scale(1.00, 1.00) ;}72.00% {animation-timing-function: cubic-bezier(0.67,0.66,0.34,0.33);transform: translate(0.00px,0.00px) rotate(0.00deg) scale(0.98, 0.98) ;}76.00% {animation-timing-function: cubic-bezier(0.66,0.68,0.33,0.35);transform: translate(0.00px,0.00px) rotate(0.00deg) scale(0.97, 0.97) ;}82.00% {animation-timing-function: cubic-bezier(0.65,0.71,0.32,0.38);transform: translate(0.00px,0.00px) rotate(0.00deg) scale(0.94, 0.94) ;}88.00% {animation-timing-function: cubic-bezier(0.65,0.73,0.31,0.40);transform: translate(0.00px,0.00px) rotate(0.00deg) scale(0.92, 0.92) ;}94.00% {animation-timing-function: cubic-bezier(0.63,0.80,0.28,0.48);transform: translate(0.00px,0.00px) rotate(0.00deg) scale(0.91, 0.91) ;}100.00% {animation-timing-function: cubic-bezier(0.63,0.80,0.28,0.48);transform: translate(0.00px,0.00px) rotate(0.00deg) scale(0.91, 0.91) ;} }</style><!-- [ldio] generated by https://loading.io --></svg>