<svg xmlns="http://www.w3.org/2000/svg" xmlns:xlink="http://www.w3.org/1999/xlink" viewBox="0 0 280 250" preserveAspectRatio="xMidYMid" style="display: block; shape-rendering: auto; background: rgb(253, 253, 253);" width="280" height="250"><style type="text/css">
  .ld-text text {
    text-anchor: middle;
    dominant-baseline: middle;
    font-size: 57px;
    opacity: 0;
    user-select: none;
    pointer-events: none;
  }
</style>
<g style="transform-origin:140px 125px;transform:scale(1)" class="ld-text">
<g transform="translate(140,125)">
  <g transform="scale(0.7125) translate(0,0)"><g class="path" style="opacity: 1; transform-origin: -130.8px 1.22px; transform: matrix3d(0.91, 0, 0, 0, 0, 0.91, 0, 0, 0, 0, 0.91, 0, 0, 0, 0, 1); animation: 1s linear -0.6s infinite normal forwards running animate-8rw4q9slfuu; transform-box: view-box;"><path d="M83.44 42.60L83.44 42.60Q85.52 42.60 87.44 40.36L87.44 40.36L88.64 41.32Q88.40 41.64 88 42.12Q87.60 42.60 86.04 43.40Q84.48 44.20 82.64 44.20L82.64 44.20Q73.68 44.20 73.68 36.44L73.68 36.44Q73.68 34.04 74.24 29.32L74.24 29.32Q70.40 30.52 67.36 30.52L67.36 30.52Q62 30.52 56.64 27.24L56.64 27.24Q53.52 32.60 50.80 36.40Q48.08 40.20 44.48 43.80L44.48 43.80Q37.04 51.08 26.52 51.08Q16 51.08 9.76 44.36L9.76 44.36Q4.24 38.20 4.24 29.36Q4.24 20.52 9.92 13.64Q15.60 6.76 24.64 6.76Q33.68 6.76 38.40 12.12L38.40 12.12Q39.52 13.56 40 14.28L40 14.28Q44.32 16.12 49.84 20.36L49.84 20.36Q54 23.72 56 25L56 25Q57.12 22.92 59.08 19.40Q61.04 15.88 62.08 14.04Q63.12 12.20 65.20 8.84Q67.28 5.48 68.60 3.76Q69.92 2.04 72.12-0.56Q74.32-3.16 76.16-4.44L76.16-4.44Q81.68-8.36 85.44-9L85.44-9Q87.52-9.32 88.96-9.32Q90.40-9.32 92.16-9.28Q93.92-9.24 97.12-8.36L97.12-8.36L96.72-6.84Q94.80-7.40 92.64-7.64L92.64-7.64Q84.64 23.80 83.44 42.60 zM42.56 23.56L42.56 23.56Q42.56 29.48 39.16 34.04Q35.76 38.60 30 38.60L30 38.60Q26.24 38.60 23.88 36.36Q21.52 34.12 21.52 31.72Q21.52 29.32 22.24 27.76Q22.96 26.20 23.88 25.40Q24.80 24.60 25.92 24.12L25.92 24.12Q27.44 23.32 28.32 23.32L28.32 23.32L28.48 24.92Q26.48 24.92 24.80 26.84Q23.12 28.76 23.12 31.16Q23.12 33.56 25 35.28Q26.88 37 30 37L30 37Q35.12 37 38.08 33Q41.04 29 41.04 24.12Q41.04 19.24 39.04 15.64L39.04 15.64Q34.64 13.96 30.32 13.96L30.32 13.96Q22 13.96 18.56 21.72L18.56 21.72L17.04 21.24Q17.92 19.24 19.84 16.92L19.84 16.92Q23.60 12.36 30.32 12.36L30.32 12.36Q33.92 12.36 37.44 13.40L37.44 13.40L37.28 13.16Q32.88 8.36 24.60 8.36Q16.32 8.36 11.08 14.76Q5.84 21.16 5.84 29.44Q5.84 37.72 10.96 43.24L10.96 43.24Q16.72 49.48 27.04 49.48L27.04 49.48Q36.48 49.48 43.52 42.36L43.52 42.36Q47.04 38.92 49.64 35.24Q52.24 31.56 55.28 26.36L55.28 26.36Q52.56 24.60 48.68 21.52Q44.80 18.44 41.20 16.60L41.20 16.60Q42.56 19.96 42.56 23.56 zM60.48 20.36L57.44 25.88Q62.56 28.92 66.84 28.92Q71.12 28.92 74.48 27.56L74.48 27.56Q76.40 14.04 81.68-6.04L81.68-6.04Q75.28-3 69.92 4.76L69.92 4.76Q66 10.36 60.48 20.36L60.48 20.36" style="fill: rgb(81, 202, 204);" transform="translate(-181.480,-19.662)"></path></g><g class="path" style="opacity: 1; transform-origin: -72.28px -1.46px; transform: matrix3d(0.91, 0, 0, 0, 0, 0.91, 0, 0, 0, 0, 0.91, 0, 0, 0, 0, 1); animation: 1s linear -0.54s infinite normal forwards running animate-8rw4q9slfuu; transform-box: view-box;"><path d="M97.52 8.92L101.60 8.92L103.76-2.92Q109.68-2.92 112.56-3.40L112.56-3.40L113.60-3.64Q112.48 1.96 111.12 8.92L111.12 8.92L121.04 8.92L120.88 10.36L110.88 10.36Q106.88 31 106.88 35.24L106.88 35.24Q106.88 37.80 109.60 37.80Q112.32 37.80 114.56 34.36Q116.80 30.92 117.76 26.92L117.76 26.92L119.20 27.40Q116.24 40.04 106.96 40.04L106.96 40.04Q103.12 40.04 100.56 37.92Q98 35.80 98 32Q98 28.20 101.28 10.36L101.28 10.36L97.36 10.36L97.52 8.92" style="fill: rgb(157, 248, 113);" transform="translate(-181.480,-19.662)"></path></g><g class="path" style="opacity: 1; transform-origin: -46.52px -1.46px; transform: matrix3d(0.91, 0, 0, 0, 0, 0.91, 0, 0, 0, 0, 0.91, 0, 0, 0, 0, 1); animation: 1s linear -0.48s infinite normal forwards running animate-8rw4q9slfuu; transform-box: view-box;"><path d="M123.28 8.92L127.36 8.92L129.52-2.92Q135.44-2.92 138.32-3.40L138.32-3.40L139.36-3.64Q138.24 1.96 136.88 8.92L136.88 8.92L146.80 8.92L146.64 10.36L136.64 10.36Q132.64 31 132.64 35.24L132.64 35.24Q132.64 37.80 135.36 37.80Q138.08 37.80 140.32 34.36Q142.56 30.92 143.52 26.92L143.52 26.92L144.96 27.40Q142 40.04 132.72 40.04L132.72 40.04Q128.88 40.04 126.32 37.92Q123.76 35.80 123.76 32Q123.76 28.20 127.04 10.36L127.04 10.36L123.12 10.36L123.28 8.92" style="fill: rgb(224, 255, 119);" transform="translate(-181.480,-19.662)"></path></g><g class="path" style="opacity: 1; transform-origin: -18.28px 4.1px; transform: matrix3d(0.91, 0, 0, 0, 0, 0.91, 0, 0, 0, 0, 0.91, 0, 0, 0, 0, 1); animation: 1s linear -0.42s infinite normal forwards running animate-8rw4q9slfuu; transform-box: view-box;"><path d="M149.84 12.04L148.64 11.08Q151.04 8.20 154.68 8.20Q158.32 8.20 160.32 10.04Q162.32 11.88 162.32 15.24L162.32 15.24L162.32 15.72Q165.92 8.20 171.68 8.20L171.68 8.20Q177.84 8.20 177.84 14.60L177.84 14.60Q177.84 17.24 176.08 20.20Q174.32 23.16 172.56 25.84Q170.80 28.52 170.80 30.60L170.80 30.60L168.88 30.60Q168.88 27.64 172.32 22.60Q175.76 17.56 175.76 14.80Q175.76 12.04 174.68 11.04Q173.60 10.04 171.48 10.04Q169.36 10.04 167.32 11.88Q165.28 13.72 163.92 16.52L163.92 16.52Q161.76 20.68 161.04 23.32L161.04 23.32L161.04 23.40L158.16 39.32L148.56 39.32L153.84 9.80Q151.44 10.04 149.84 12.04L149.84 12.04" style="fill: rgb(222, 157, 214);" transform="translate(-181.480,-19.662)"></path></g><g class="path" style="opacity: 1; transform-origin: 15.32px 4.46px; transform: matrix3d(0.91, 0, 0, 0, 0, 0.91, 0, 0, 0, 0, 0.91, 0, 0, 0, 0, 1); animation: 1s linear -0.36s infinite normal forwards running animate-8rw4q9slfuu; transform-box: view-box;"><path d="M207.76 40.04L207.76 40.04Q200.72 40.04 200.08 33.88L200.08 33.88Q196.56 40.04 191.20 40.04Q185.84 40.04 182.68 36.80Q179.52 33.56 179.52 27.72L179.52 27.72Q179.52 18.60 184 13.40Q188.48 8.20 195.60 8.20L195.60 8.20Q201.44 8.20 203.36 13.72L203.36 13.72Q203.76 11.32 204.24 8.92L204.24 8.92Q210.16 8.92 213.04 8.44L213.04 8.44L214.08 8.20L208.56 38.44Q210.96 38.20 212.56 36.20L212.56 36.20L213.76 37.16Q211.36 40.04 207.76 40.04 zM188.56 31.80Q188.56 35.40 189.48 36.80Q190.40 38.20 192.32 38.20Q194.24 38.20 196.24 36.12L196.24 36.12Q198.88 33.40 200.48 29.24L200.48 29.24Q200.72 28.20 201.40 24.24Q202.08 20.28 202.56 17.72L202.56 17.72Q202.32 14.68 200.88 12.44Q199.44 10.20 197.28 10.20L197.28 10.20Q193.36 10.20 190.96 17.20Q188.56 24.20 188.56 31.80L188.56 31.80" style="fill: rgb(255, 112, 142);" transform="translate(-181.480,-19.662)"></path></g><g class="path" style="opacity: 1; transform-origin: 51.24px 4.46px; transform: matrix3d(0.91, 0, 0, 0, 0, 0.91, 0, 0, 0, 0, 0.91, 0, 0, 0, 0, 1); animation: 1s linear -0.3s infinite normal forwards running animate-8rw4q9slfuu; transform-box: view-box;"><path d="M237.52 22.60Q235.84 20.92 235.84 18.52Q235.84 16.12 237.52 14.40Q239.20 12.68 241.60 12.68L241.60 12.68Q242.32 12.68 243.44 13L243.44 13Q241.92 10.20 237.76 10.20Q233.60 10.20 230.40 15.48Q227.20 20.76 227.20 31.16L227.20 31.16Q227.20 34.76 228.84 36.48Q230.48 38.20 232.96 38.20Q235.44 38.20 237.48 37.24Q239.52 36.28 240.72 34.96Q241.92 33.64 242.80 32.20L242.80 32.20Q244.40 29.56 244.40 28.84L244.40 28.84L245.84 29.48Q245.60 30.76 244.40 32.88Q243.20 35 241.76 36.36Q240.32 37.72 237.52 38.88Q234.72 40.04 231.28 40.04L231.28 40.04Q224.80 40.04 221.48 36.96Q218.16 33.88 218.16 28.52L218.16 28.52Q218.16 19 222.92 13.60Q227.68 8.20 235.84 8.20L235.84 8.20Q241.36 8.20 244.32 11Q247.28 13.80 247.28 18.36L247.28 18.36Q247.28 21.24 245.56 22.76Q243.84 24.28 241.52 24.28Q239.20 24.28 237.52 22.60" style="fill: rgb(81, 202, 204);" transform="translate(-181.480,-19.662)"></path></g><g class="path" style="opacity: 1; transform-origin: 81.72px -1.46px; transform: matrix3d(0.91, 0, 0, 0, 0, 0.91, 0, 0, 0, 0, 0.91, 0, 0, 0, 0, 1); animation: 1s linear -0.24s infinite normal forwards running animate-8rw4q9slfuu; transform-box: view-box;"><path d="M251.52 8.92L255.60 8.92L257.76-2.92Q263.68-2.92 266.56-3.40L266.56-3.40L267.60-3.64Q266.48 1.96 265.12 8.92L265.12 8.92L275.04 8.92L274.88 10.36L264.88 10.36Q260.88 31 260.88 35.24L260.88 35.24Q260.88 37.80 263.60 37.80Q266.32 37.80 268.56 34.36Q270.80 30.92 271.76 26.92L271.76 26.92L273.20 27.40Q270.24 40.04 260.96 40.04L260.96 40.04Q257.12 40.04 254.56 37.92Q252 35.80 252 32Q252 28.20 255.28 10.36L255.28 10.36L251.36 10.36L251.52 8.92" style="fill: rgb(157, 248, 113);" transform="translate(-181.480,-19.662)"></path></g><g class="path" style="opacity: 1; transform-origin: 103.04px 4.46px; transform: matrix3d(0.91, 0, 0, 0, 0, 0.91, 0, 0, 0, 0, 0.91, 0, 0, 0, 0, 1); animation: 1s linear -0.18s infinite normal forwards running animate-8rw4q9slfuu; transform-box: view-box;"><path d="M291.20 37.16Q288.80 40.04 285.20 40.04Q281.60 40.04 279.56 38.20Q277.52 36.36 277.52 33.40L277.52 33.40Q277.52 32.36 278.80 24.68L278.80 24.68L281.44 10.36L278.08 10.36L278.24 8.92L281.68 8.92Q287.60 8.92 290.40 8.44L290.40 8.44L291.52 8.20L286 38.44Q288.40 38.20 290 36.20L290 36.20L291.20 37.16" style="fill: rgb(224, 255, 119);" transform="translate(-181.480,-19.662)"></path></g><g class="path" style="opacity: 1; transform-origin: 106.8px -23.26px; transform: matrix3d(0.91, 0, 0, 0, 0, 0.91, 0, 0, 0, 0, 0.91, 0, 0, 0, 0, 1); animation: 1s linear -0.12s infinite normal forwards running animate-8rw4q9slfuu; transform-box: view-box;"><path d="M284.16 0.52Q282.48-1.16 282.48-3.56Q282.48-5.96 284.16-7.68Q285.84-9.40 288.24-9.40Q290.64-9.40 292.36-7.68Q294.08-5.96 294.08-3.56Q294.08-1.16 292.36 0.52Q290.64 2.20 288.24 2.20Q285.84 2.20 284.16 0.52" style="fill: rgb(222, 157, 214);" transform="translate(-181.480,-19.662)"></path></g><g class="path" style="opacity: 1; transform-origin: 129.96px 4.46px; transform: matrix3d(0.91, 0, 0, 0, 0, 0.91, 0, 0, 0, 0, 0.91, 0, 0, 0, 0, 1); animation: 1s linear -0.06s infinite normal forwards running animate-8rw4q9slfuu; transform-box: view-box;"><path d="M308.32 40.04Q302.16 40.04 298.96 36.96Q295.76 33.88 295.76 29.20Q295.76 24.52 296.60 21.20Q297.44 17.88 299.36 14.80Q301.28 11.72 305.16 9.96Q309.04 8.20 314.84 8.20Q320.64 8.20 323.88 11.28Q327.12 14.36 327.12 19.72L327.12 19.72Q327.12 28.84 322.28 34.44Q317.44 40.04 308.32 40.04L308.32 40.04 zM304.80 31.80L304.80 31.80Q304.80 38.20 308.52 38.20Q312.24 38.20 315.16 31.76Q318.08 25.32 318.08 16.44L318.08 16.44Q318.08 9.72 314.44 9.72Q310.80 9.72 307.80 15.84Q304.80 21.96 304.80 31.80" style="fill: rgb(255, 112, 142);" transform="translate(-181.480,-19.662)"></path></g><g class="path" style="opacity: 1; transform-origin: 167.76px 4.46px; transform: matrix3d(0.91, 0, 0, 0, 0, 0.91, 0, 0, 0, 0, 0.91, 0, 0, 0, 0, 1); animation: 1s linear 0s infinite normal forwards running animate-8rw4q9slfuu; transform-box: view-box;"><path d="M362 38.44L362 38.44Q363.92 38.44 366 36.20L366 36.20L367.20 37.16Q366.64 38.28 364.72 39.16Q362.80 40.04 360.48 40.04L360.48 40.04Q353.20 40.04 353.20 33.48L353.20 33.48Q353.20 30.68 354.64 23.48Q356.08 16.28 356.08 14.04L356.08 14.04Q356.08 10.60 352.80 10.60L352.80 10.60Q350.16 10.60 347.72 14.04Q345.28 17.48 343.68 23.48L343.68 23.48L340.96 38.44Q343.44 38.20 345.04 36.20L345.04 36.20L346.24 37.16Q343.84 40.04 340.24 40.04Q336.64 40.04 334.60 38.20Q332.56 36.36 332.56 33.40L332.56 33.40Q332.56 32.28 333.84 24.60L333.84 24.60L336.48 9.80Q334.08 10.04 332.48 12.04L332.48 12.04L331.28 11.08Q333.68 8.20 337.32 8.20Q340.96 8.20 342.96 10.04Q344.96 11.88 344.96 15.24L344.96 15.24L344.96 15.72Q348.24 8.20 355.20 8.20L355.20 8.20Q359.92 8.20 362.56 10.88Q365.20 13.56 365.20 18.28L365.20 18.28Q365.20 20.76 363.68 27.84Q362.16 34.92 362 38.44" style="fill: rgb(81, 202, 204);" transform="translate(-181.480,-19.662)"></path></g></g><text dy="0.35em" fill="#51cacc" font-family="Sail" font-size="57">Attraction</text>
</g>
</g><style type="text/css">@keyframes animate-8rw4q9slfuu { 0.00% {transform: translate(0.00px,0.00px) rotate(0.00deg) scale(0.91, 0.91) skew(0deg, 0.00deg) ;opacity: 1.00;}4.00% {transform: translate(0.00px,0.00px) rotate(0.00deg) scale(0.91, 0.91) ;}8.00% {animation-timing-function: cubic-bezier(0.69,0.60,0.35,0.27);transform: translate(0.00px,0.00px) rotate(0.00deg) scale(0.91, 0.91) ;}14.00% {transform: translate(0.00px,0.00px) rotate(0.00deg) scale(0.93, 0.93) ;}18.00% {transform: translate(0.00px,0.00px) rotate(0.00deg) scale(0.94, 0.94) ;}22.00% {animation-timing-function: cubic-bezier(0.67,0.66,0.34,0.33);transform: translate(0.00px,0.00px) rotate(0.00deg) scale(0.96, 0.96) ;}26.00% {transform: translate(0.00px,0.00px) rotate(0.00deg) scale(0.97, 0.97) ;}30.00% {transform: translate(0.00px,0.00px) rotate(0.00deg) scale(0.99, 0.99) ;}34.00% {animation-timing-function: cubic-bezier(0.65,0.71,0.32,0.38);transform: translate(0.00px,0.00px) rotate(0.00deg) scale(1.01, 1.01) ;}40.00% {animation-timing-function: cubic-bezier(0.64,0.74,0.31,0.41);transform: translate(0.00px,0.00px) rotate(0.00deg) scale(1.02, 1.02) ;}46.00% {animation-timing-function: cubic-bezier(0.60,0.91,0.23,0.63);transform: translate(0.00px,0.00px) rotate(0.00deg) scale(1.03, 1.03) ;}50.00% {transform: translate(0.00px,0.00px) rotate(0.00deg) scale(1.03, 1.03) ;}54.00% {transform: translate(0.00px,0.00px) rotate(0.00deg) scale(1.03, 1.03) ;}58.00% {animation-timing-function: cubic-bezier(0.69,0.60,0.35,0.27);transform: translate(0.00px,0.00px) rotate(0.00deg) scale(1.03, 1.03) ;}64.00% {transform: translate(0.00px,0.00px) rotate(0.00deg) scale(1.01, 1.01) ;}68.00% {transform: translate(0.00px,0.00px) rotate(0.00deg) scale(1.00, 1.00) ;}72.00% {animation-timing-function: cubic-bezier(0.67,0.66,0.34,0.33);transform: translate(0.00px,0.00px) rotate(0.00deg) scale(0.98, 0.98) ;}76.00% {animation-timing-function: cubic-bezier(0.66,0.68,0.33,0.35);transform: translate(0.00px,0.00px) rotate(0.00deg) scale(0.97, 0.97) ;}82.00% {animation-timing-function: cubic-bezier(0.65,0.71,0.32,0.38);transform: translate(0.00px,0.00px) rotate(0.00deg) scale(0.94, 0.94) ;}88.00% {animation-timing-function: cubic-bezier(0.65,0.73,0.31,0.40);transform: translate(0.00px,0.00px) rotate(0.00deg) scale(0.92, 0.92) ;}94.00% {animation-timing-function: cubic-bezier(0.63,0.80,0.28,0.48);transform: translate(0.00px,0.00px) rotate(0.00deg) scale(0.91, 0.91) ;}100.00% {animation-timing-function: cubic-bezier(0.63,0.80,0.28,0.48);transform: translate(0.00px,0.00px) rotate(0.00deg) scale(0.91, 0.91) ;} }</style><!-- [ldio] generated by https://loading.io --></svg>